<?xml version="1.0" encoding="utf-8"?>
<!-- Svg Vector Icons : http://www.onlinewebfonts.com/icon -->
<!DOCTYPE svg PUBLIC "-//W3C//DTD SVG 1.1//EN" "http://www.w3.org/Graphics/SVG/1.1/DTD/svg11.dtd">
<svg version="1.1" xmlns="http://www.w3.org/2000/svg" xmlns:xlink="http://www.w3.org/1999/xlink" x="0px" y="0px" viewBox="0 0 256 256" enable-background="new 0 0 256 256" xml:space="preserve">
<metadata> Svg Vector Icons : http://www.onlinewebfonts.com/icon </metadata>
<g><g><g><path fill="white" d="M115.8,10.6c-13.1,1.3-27.6,5.5-39.8,11.6C52,34.1,34.1,51.9,22.2,76c-28.7,57.7-5.2,128,52.4,157.2c58.1,29.5,129,6.3,158.5-51.9c23.2-45.5,14.4-100.6-21.8-136.7C186.4,19.6,151.2,7,115.8,10.6z M148.7,54.9c4,1.5,7.7,4.9,9.6,8.8c1.2,2.5,1.5,3.8,1.5,7c-0.1,5-1.6,8.3-5.5,11.9c-11.1,10.2-30.1,2.8-30.1-11.6c0-2,0.3-4.5,0.7-5.6c1.6-4.7,5.9-8.9,11-10.6C139.4,53.4,145.1,53.5,148.7,54.9z M135.7,104.2c4.5,1.6,8.9,5.5,10.6,9.5c2.9,6.8,2.2,13.6-3.9,35c-5.2,18.5-6.1,22.4-6.1,27.3c0,4.4,1.1,7,3.6,8.1c2.7,1.3,9.8,1.2,14.2-0.2c1.9-0.6,3.6-1,3.7-0.9c0.1,0.1-0.3,1.9-0.8,4l-1,3.8l-4.4,1.8c-12.5,5-20,6.4-28,5.2c-7.5-1.2-12.7-4.5-15.8-10.1c-1.3-2.4-1.7-3.8-1.8-7.5c-0.3-6.5,0.5-10.8,5.5-28.4c5-18,6-22.4,6-27.1c0-4.6-1.1-7-3.7-8.1c-2.9-1.2-9.6-1.1-14,0.3l-3.5,1.1l0.3-2c1-6.1,0.8-5.9,8.3-8.6c6.5-2.4,11.5-3.9,15.1-4.5C123.7,102.3,132.2,103,135.7,104.2z"/></g></g></g>
</svg>
